<svg version="1.2" xmlns="http://www.w3.org/2000/svg" viewBox="0 0 21 14" width="21" height="14">
	<title>add-svg</title>
	<style>
		.s0 { fill: none } 
		.s1 { fill: #feeafa } 
	</style>
	<g id="Icons">
		<g id="Rounded">
			<g id="AV">
				<g id="-Round-/-AV-/-playlist_add_check">
					<g id="Layer">
						<path id="Rectangle-Copy-61" class="s0" d="m-2-5h24v24h-24z"/>
						<path id="🔹Icon-Color" fill-rule="evenodd" class="s1" d="m12 5c0 0.6-0.4 1-1 1h-10c-0.5 0-1-0.4-1-1c0-0.6 0.5-1 1-1h10c0.6 0 1 0.4 1 1zm-1-5h-10c-0.5 0-1 0.5-1 1c0 0.5 0.5 1 1 1h10c0.6 0 1-0.5 1-1c0-0.5-0.4-1-1-1zm-10 10h6c0.6 0 1-0.4 1-1c0-0.6-0.4-1-1-1h-6c-0.5 0-1 0.4-1 1c0 0.6 0.5 1 1 1zm17.8-3.8l-4.8 4.8l-2.3-2.3c-0.4-0.4-1-0.4-1.4 0l-0.1 0.1c-0.4 0.4-0.4 1 0 1.4l3.1 3.1c0.4 0.4 1 0.4 1.4 0l5.6-5.6c0.4-0.4 0.4-1 0-1.4l-0.1-0.1c-0.4-0.4-1-0.4-1.4 0z"/>
					</g>
				</g>
			</g>
		</g>
	</g>
</svg>